#!OML:ASF E:\Style4\Style4.ASF
:FULLY-SPECIFIED
:DEGREES
2340
root -0.242603 17.735 -1.59639 0.553236 0.356737 1.83795
lowerback 7.19248 2.09234 -0.679789
upperback 3.23321 2.74858 0.932561
thorax -0.771429 1.3619 1.12659
lowerneck -1.28186 -4.8575 -6.7965
upperneck 8.11863 -6.53892 4.11674
head 3.27379 -3.31837 2.32827
rclavicle -3.6477e-014 1.03368e-014
rhumerus -30.9027 23.991 -76.113
rradius 104.836
rwrist 23.9288
rhand -38.3979 26.9573
rfingers 7.12502
rthumb -11.423 -2.71148
lclavicle -3.6477e-014 1.03368e-014
lhumerus -23.2197 -37.3327 73.887
lradius 100.401
lwrist -21.2153
lhand -33.0269 28.4113
lfingers 7.12502
lthumb -6.24022 58.2994
rfemur -12.376 0.167908 17.2552
rtibia 33.0694
rfoot -19.7964 -15.2727
rtoes -12.9785
lfemur -10.3576 -3.67027 -20.2053
ltibia 30.5056
lfoot -20.1541 8.1441
ltoes -14.4355
2341
root -0.237945 17.7293 -1.61455 0.390407 0.228276 1.89884
lowerback 7.18194 2.11501 -0.706541
upperback 3.26175 2.77623 0.885224
thorax -0.735808 1.3755 1.09185
lowerneck -1.31894 -4.88083 -6.74088
upperneck 8.10777 -6.56548 4.05758
head 3.27312 -3.33127 2.29615
rclavicle 1.60022e-014 1.27222e-014
rhumerus -27.606 24.5312 -74.8176
rradius 103.441
rwrist 23.706
rhand -38.2782 26.2396
rfingers 7.12502
rthumb -11.3075 -3.4356
lclavicle 1.60022e-014 1.27222e-014
lhumerus -19.791 -37.7334 72.3753
lradius 99.0986
lwrist -21.0734
lhand -32.5392 28.8852
lfingers 7.12502
lthumb -5.7693 58.7866
rfemur -12.3787 0.106427 17.148
rtibia 33.2492
rfoot -19.8548 -15.0619
rtoes -12.9981
lfemur -10.3051 -3.58565 -20.3059
ltibia 30.6591
lfoot -20.2593 8.17639
ltoes -14.2262
2342
root -0.235085 17.7226 -1.6372 0.260764 0.0844682 1.93058
lowerback 7.17434 2.13784 -0.758392
upperback 3.26811 2.80308 0.877097
thorax -0.727741 1.38845 1.11082
lowerneck -1.38378 -4.90779 -6.69936
upperneck 8.17478 -6.59223 3.94941
head 3.30292 -3.34641 2.2491
rclavicle -8.54774e-015 -4.77083e-015
rhumerus -24.219 24.97 -73.499
rradius 101.649
rwrist 23.4647
rhand -38.5878 26.2912
rfingers 7.12502
rthumb -11.6062 -3.36741
lclavicle -8.54774e-015 -4.77083e-015
lhumerus -16.4033 -37.98 70.9263
lradius 97.6737
lwrist -20.9509
lhand -32.0822 29.3806
lfingers 7.12502
lthumb -5.32811 59.2936
rfemur -12.4537 0.112168 17.0878
rtibia 33.4446
rfoot -19.816 -14.9331
rtoes -13.1358
lfemur -10.3285 -3.45278 -20.3613
ltibia 30.8521
lfoot -20.271 8.24457
ltoes -14.8053
2343
root -0.233825 17.716 -1.66291 0.108677 0.0405839 1.83615
lowerback 7.23863 2.0947 -0.715008
upperback 3.26908 2.74881 0.920242
thorax -0.761001 1.36156 1.13271
lowerneck -1.54845 -4.88578 -6.62425
upperneck 8.29232 -6.54526 3.78834
head 3.36043 -3.3251 2.17899
rclavicle -5.76476e-015 -2.38542e-015
rhumerus -20.6886 25.4242 -72.136
rradius 99.7458
rwrist 23.0312
rhand -38.4819 26.2645
rfingers 7.12502
rthumb -11.5041 -3.39982
lclavicle -5.76476e-015 -2.38542e-015
lhumerus -12.9907 -38.0868 69.4496
lradius 96.0109
lwrist -20.7171
lhand -31.9326 29.5846
lfingers 7.12502
lthumb -5.1837 59.5012
rfemur -12.4961 0.0828728 17.1813
rtibia 33.6479
rfoot -19.8368 -14.8513
rtoes -12.8266
lfemur -10.3942 -3.37359 -20.2563
ltibia 31.1265
lfoot -20.2908 8.23872
ltoes -15.1094
2344
root -0.234501 17.7075 -1.69055 -0.0189959 0.0193159 1.74235
lowerback 7.32598 2.05246 -0.671234
upperback 3.25754 2.69591 0.96826
thorax -0.820127 1.33547 1.15823
lowerneck -1.77257 -4.84389 -6.6667
upperneck 8.39845 -6.47292 3.75758
head 3.43612 -3.29024 2.17442
rclavicle -4.26393e-014 -1.11319e-014
rhumerus -17.1281 25.8198 -70.7409
rradius 97.8569
rwrist 22.3746
rhand -38.1816 25.7442
rfingers 7.12502
rthumb -11.2144 -3.93604
lclavicle -4.26393e-014 -1.11319e-014
lhumerus -9.49018 -38.1688 67.9608
lradius 94.2273
lwrist -20.3774
lhand -31.7519 29.7564
lfingers 7.12502
lthumb -5.00913 59.6772
rfemur -12.5913 0.0706889 17.2973
rtibia 33.8933
rfoot -19.8693 -14.8757
rtoes -12.9782
lfemur -10.5287 -3.30557 -20.1323
ltibia 31.434
lfoot -20.3526 8.16437
ltoes -14.9113
2345
root -0.236606 17.6985 -1.71997 -0.12922 -0.0808412 1.647
lowerback 7.39714 2.07312 -0.596505
upperback 3.24644 2.7284 0.990778
thorax -0.869393 1.35234 1.13399
lowerneck -1.85054 -4.85438 -6.69057
upperneck 8.35418 -6.47774 3.72659
head 3.43553 -3.29343 2.16655
rclavicle -2.21645e-014 1.82882e-014
rhumerus -13.6789 25.9815 -69.4316
rradius 95.8394
rwrist 21.7653
rhand -37.9537 25.5131
rfingers 7.12502
rthumb -10.9946 -4.17903
lclavicle -2.21645e-014 1.82882e-014
lhumerus -5.9608 -38.2756 66.5153
lradius 92.3461
lwrist -20.003
lhand -31.4023 29.8115
lfingers 7.12502
lthumb -4.67164 59.74
rfemur -12.7091 0.126327 17.421
rtibia 34.1592
rfoot -19.9202 -14.6934
rtoes -12.3702
lfemur -10.6792 -3.22011 -20.0087
ltibia 31.7249
lfoot -20.3707 8.12381
ltoes -14.6935
2346
root -0.235602 17.6906 -1.74707 -0.236576 -0.195227 1.6145
lowerback 7.39347 2.09374 -0.543215
upperback 3.25328 2.75929 0.990568
thorax -0.85861 1.36809 1.10175
lowerneck -1.8625 -4.86158 -6.77152
upperneck 8.25209 -6.48182 3.73608
head 3.40693 -3.29693 2.18436
rclavicle 4.77083e-015 -7.15625e-015
rhumerus -10.2061 26.0985 -68.1575
rradius 93.6647
rwrist 21.2116
rhand -37.642 25.3106
rfingers 7.12502
rthumb -10.6939 -4.39721
lclavicle 4.77083e-015 -7.15625e-015
lhumerus -2.44176 -38.2879 65.1675
lradius 90.3141
lwrist -19.6297
lhand -31.3306 29.8417
lfingers 7.12502
lthumb -4.60242 59.7717
rfemur -12.8057 0.0848222 17.4533
rtibia 34.429
rfoot -19.8639 -14.3613
rtoes -11.6073
lfemur -10.7978 -3.1139 -19.9699
ltibia 32.0038
lfoot -20.3905 8.07831
ltoes -14.5389
2347
root -0.233524 17.6834 -1.76964 -0.385881 -0.276877 1.74087
lowerback 7.422 2.12582 -0.639851
upperback 3.2691 2.79442 0.935231
thorax -0.860679 1.38514 1.09533
lowerneck -1.97432 -4.89122 -6.76434
upperneck 8.26452 -6.51382 3.71928
head 3.43339 -3.31219 2.17351
rclavicle 1.91827e-014 -1.03368e-014
rhumerus -6.77457 26.1685 -66.9108
rradius 91.328
rwrist 20.6331
rhand -37.5744 24.9621
rfingers 7.12502
rthumb -10.6288 -4.74909
lclavicle 1.91827e-014 -1.03368e-014
lhumerus 1.05276 -38.3317 63.8845
lradius 88.2255
lwrist -19.187
lhand -31.2253 30.3181
lfingers 7.12502
lthumb -4.50074 60.2503
rfemur -12.8808 0.0517556 17.293
rtibia 34.6764
rfoot -19.8978 -14.2489
rtoes -11.6199
lfemur -10.8478 -3.03119 -20.1256
ltibia 32.2842
lfoot -20.4077 8.1665
ltoes -15.0412
